<svg width="96" height="96" xmlns="http://www.w3.org/2000/svg" xmlns:xlink="http://www.w3.org/1999/xlink" overflow="hidden"><defs><clipPath id="clip0"><rect x="592" y="312" width="96" height="96"/></clipPath></defs><g clip-path="url(#clip0)" transform="translate(-592 -312)"><path d="M621 338C622.7 338 624 336.7 624 335L624 329C624 327.3 622.7 326 621 326 619.3 326 618 327.3 618 329L618 335C618 336.7 619.3 338 621 338Z"/><path d="M612 380 628 380 628 388 612 388 612 380ZM612 368 628 368 628 376 612 376 612 368ZM612 356 628 356 628 364 612 364 612 356ZM648 356 648 364 632 364 632 356 648 356ZM668 356 668 364 652 364 652 356 668 356ZM668 376 652 376 652 368 668 368 668 376ZM668 388 652 388 652 380 668 380 668 388ZM632 376 632 368 648 368 648 376 632 376ZM632 388 632 380 648 380 648 388 632 388ZM606 394 674 394 674 350 606 350 606 394Z"/><path d="M659 338C660.7 338 662 336.7 662 335L662 329C662 327.3 660.7 326 659 326 657.3 326 656 327.3 656 329L656 335C656 336.7 657.3 338 659 338Z"/><path d="M666 332 666 335C666 338.9 662.9 342 659 342 655.1 342 652 338.9 652 335L652 332 628 332 628 335C628 338.9 624.9 342 621 342 617.1 342 614 338.9 614 335L614 332 606 332 606 346 674 346 674 332 666 332Z"/></g></svg>