<svg width="330" height="330" xmlns="http://www.w3.org/2000/svg" xmlns:xlink="http://www.w3.org/1999/xlink" overflow="hidden"><defs><clipPath id="clip0"><rect x="3563" y="1540" width="330" height="330"/></clipPath></defs><g clip-path="url(#clip0)" transform="translate(-3563 -1540)"><path d="M3636.5 1751.5C3636.5 1726.09 3656.87 1705.5 3682 1705.5 3707.13 1705.5 3727.5 1726.09 3727.5 1751.5 3727.5 1776.91 3707.13 1797.5 3682 1797.5 3656.87 1797.5 3636.5 1776.91 3636.5 1751.5Z" stroke="#AFABAB" stroke-width="4.58333" stroke-miterlimit="8" fill="#AFABAB" fill-rule="evenodd"/><path d="M3688.5 1776.5C3688.5 1751.09 3708.87 1730.5 3734 1730.5 3759.13 1730.5 3779.5 1751.09 3779.5 1776.5 3779.5 1801.91 3759.13 1822.5 3734 1822.5 3708.87 1822.5 3688.5 1801.91 3688.5 1776.5Z" stroke="#AFABAB" stroke-width="4.58333" stroke-miterlimit="8" fill="#AFABAB" fill-rule="evenodd"/><path d="M3727.5 1801C3727.5 1783.05 3747.87 1768.5 3773 1768.5 3798.13 1768.5 3818.5 1783.05 3818.5 1801 3818.5 1818.95 3798.13 1833.5 3773 1833.5 3747.87 1833.5 3727.5 1818.95 3727.5 1801Z" stroke="#AFABAB" stroke-width="4.58333" stroke-miterlimit="8" fill="#AFABAB" fill-rule="evenodd"/><path d="M3586.5 1792.5C3586.5 1769.86 3606.87 1751.5 3632 1751.5 3657.13 1751.5 3677.5 1769.86 3677.5 1792.5 3677.5 1815.14 3657.13 1833.5 3632 1833.5 3606.87 1833.5 3586.5 1815.14 3586.5 1792.5Z" stroke="#AFABAB" stroke-width="4.58333" stroke-miterlimit="8" fill="#AFABAB" fill-rule="evenodd"/><rect x="3620.5" y="1785.5" width="136" height="48.0001" stroke="#AFABAB" stroke-width="4.58333" stroke-miterlimit="8" fill="#AFABAB"/><path d="M3715.5 1681C3715.5 1655.87 3735.87 1635.5 3761 1635.5 3786.13 1635.5 3806.5 1655.87 3806.5 1681 3806.5 1706.13 3786.13 1726.5 3761 1726.5 3735.87 1726.5 3715.5 1706.13 3715.5 1681Z" stroke="#FFCC58" stroke-width="4.58333" stroke-miterlimit="8" fill="#FFCC58" fill-rule="evenodd"/><path d="M3758.15 1577.81 3765.03 1577.81 3765.03 1615.62 3758.15 1615.62Z" stroke="#000000" stroke-width="3.4375"/><path d="M3826.9 1677.5 3864.71 1677.5 3864.71 1684.38 3826.9 1684.38Z" stroke="#000000" stroke-width="3.4375"/><path d="M3658.46 1677.5 3696.28 1677.5 3696.28 1684.38 3658.46 1684.38Z" stroke="#000000" stroke-width="3.4375"/><path d="M3805.34 1729.55 3810.2 1724.69 3836.94 1751.43 3832.08 1756.29Z" stroke="#000000" stroke-width="3.4375"/><path d="M3686.24 1610.45 3691.1 1605.59 3717.84 1632.33 3712.98 1637.19Z" stroke="#000000" stroke-width="3.4375"/><path d="M3805.34 1632.33 3832.08 1605.59 3836.94 1610.45 3810.2 1637.19Z" stroke="#000000" stroke-width="3.4375"/><path d="M3760 1629.4C3733.59 1630.41 3712.15 1651.07 3710.15 1677.42 3709.7 1683.97 3710.51 1690.54 3712.53 1696.79 3716.32 1698.77 3719.9 1701.12 3723.21 1703.82 3723.28 1703.88 3723.3 1703.86 3723.25 1703.78 3718.03 1695.11 3715.93 1684.9 3717.31 1674.87 3720.64 1650.41 3743.16 1633.28 3767.62 1636.61 3792.07 1639.94 3809.2 1662.46 3805.87 1686.91 3803.4 1705.11 3790.04 1719.94 3772.21 1724.3 3774.46 1725.89 3776.59 1727.66 3778.56 1729.58 3805.44 1720.22 3819.65 1690.84 3810.29 1663.96 3802.88 1642.69 3782.52 1628.69 3760 1629.4Z" stroke="#000000" stroke-width="3.4375"/><path d="M3623.36 1837.08 3788.4 1837.43 3788.44 1837.43C3808.26 1836.95 3823.93 1820.49 3823.45 1800.68 3823.45 1800.53 3823.45 1800.37 3823.44 1800.22 3822.75 1780.61 3806.59 1765.1 3786.96 1765.21 3786.96 1765.21 3785.09 1765.22 3784.47 1765.23 3782.5 1742.02 3763.17 1724.12 3739.87 1723.95 3736.03 1723.95 3732.21 1724.44 3728.49 1725.4 3713.12 1700.25 3680.27 1692.31 3655.12 1707.68 3640.76 1716.45 3631.38 1731.48 3629.81 1748.23 3628.41 1748.09 3627 1748.02 3625.59 1748.02 3612.03 1748.09 3599.23 1754.27 3590.74 1764.84 3580.69 1777.95 3578.55 1795.48 3585.16 1810.62 3591.92 1825.91 3606.67 1836.13 3623.36 1837.08ZM3596.11 1769.14C3603.29 1760.19 3614.12 1754.96 3625.59 1754.89 3626.78 1754.89 3627.98 1754.95 3629.13 1755.07L3635.96 1755.74 3636.65 1748.91C3638.49 1729.12 3652.71 1712.68 3672.03 1708.03 3691.66 1703.16 3712.16 1711.64 3722.6 1728.95L3725.25 1733.34 3730.21 1732.06C3733.37 1731.24 3736.61 1730.82 3739.87 1730.82 3747.81 1730.79 3755.55 1733.33 3761.92 1738.06L3762.02 1738.14 3762.12 1738.21C3771.21 1744.55 3776.91 1754.69 3777.61 1765.75L3778.1 1772.25 3786.96 1772.09C3802.89 1771.97 3816.02 1784.56 3816.57 1800.48 3816.88 1808.27 3814.02 1815.86 3808.64 1821.5 3803.4 1827.12 3796.1 1830.39 3788.42 1830.55L3623.6 1830.21C3609.54 1829.31 3597.14 1820.68 3591.43 1807.8 3585.85 1795.02 3587.64 1780.22 3596.11 1769.14Z" stroke="#000000" stroke-width="3.4375"/></g></svg>