<svg width="330" height="330" xmlns="http://www.w3.org/2000/svg" xmlns:xlink="http://www.w3.org/1999/xlink" overflow="hidden"><defs><clipPath id="clip0"><rect x="3005" y="1322" width="330" height="330"/></clipPath></defs><g clip-path="url(#clip0)" transform="translate(-3005 -1322)"><path d="M3092.5 1468C3092.5 1436.24 3116.68 1410.5 3146.5 1410.5 3176.32 1410.5 3200.5 1436.24 3200.5 1468 3200.5 1499.76 3176.32 1525.5 3146.5 1525.5 3116.68 1525.5 3092.5 1499.76 3092.5 1468Z" stroke="#AFABAB" stroke-width="4.58333" stroke-miterlimit="8" fill="#AFABAB" fill-rule="evenodd"/><path d="M3029.5 1517C3029.5 1492.42 3053.68 1472.5 3083.5 1472.5 3113.32 1472.5 3137.5 1492.42 3137.5 1517 3137.5 1541.58 3113.32 1561.5 3083.5 1561.5 3053.68 1561.5 3029.5 1541.58 3029.5 1517Z" stroke="#AFABAB" stroke-width="4.58333" stroke-miterlimit="8" fill="#AFABAB" fill-rule="evenodd"/><path d="M3154.5 1488C3154.5 1463.42 3178.9 1443.5 3209 1443.5 3239.1 1443.5 3263.5 1463.42 3263.5 1488 3263.5 1512.58 3239.1 1532.5 3209 1532.5 3178.9 1532.5 3154.5 1512.58 3154.5 1488Z" stroke="#AFABAB" stroke-width="4.58333" stroke-miterlimit="8" fill="#AFABAB" fill-rule="evenodd"/><path d="M3201.5 1527C3201.5 1505.74 3225.68 1488.5 3255.5 1488.5 3285.32 1488.5 3309.5 1505.74 3309.5 1527 3309.5 1548.26 3285.32 1565.5 3255.5 1565.5 3225.68 1565.5 3201.5 1548.26 3201.5 1527Z" stroke="#AFABAB" stroke-width="4.58333" stroke-miterlimit="8" fill="#AFABAB" fill-rule="evenodd"/><rect x="3086.5" y="1518.5" width="166" height="47.0001" stroke="#AFABAB" stroke-width="4.58333" stroke-miterlimit="8" fill="#AFABAB"/><path d="M3073.75 1569.23C3077.23 1569.41 3087.37 1569.5 3087.37 1569.5L3273.14 1569.5C3296 1569.41 3314.47 1550.8 3314.38 1527.94 3314.29 1505.33 3296.08 1486.98 3273.48 1486.7L3270.05 1486.7C3270.01 1470.05 3261.95 1454.43 3248.39 1444.75 3234.65 1435.14 3217.13 1432.71 3201.29 1438.22 3185.74 1407.82 3148.49 1395.78 3118.09 1411.33 3097.52 1421.85 3084.53 1442.97 3084.41 1466.07L3084.41 1466.76C3081.72 1466.32 3078.99 1466.1 3076.25 1466.1 3047.72 1466.06 3024.57 1489.16 3024.54 1517.69 3024.53 1525.28 3026.19 1532.78 3029.41 1539.66 3037.76 1556.8 3054.71 1568.11 3073.75 1569.23ZM3040.4 1490.84C3048.98 1479.7 3062.19 1473.11 3076.25 1472.97 3078.61 1472.97 3080.97 1473.16 3083.3 1473.54L3091.29 1474.85 3091.29 1466.07C3091.47 1435.72 3116.23 1411.26 3146.59 1411.44 3167.1 1411.57 3185.83 1423.1 3195.18 1441.36L3197.91 1446.68 3203.55 1444.71C3226.75 1436.42 3252.27 1448.5 3260.57 1471.7 3262.29 1476.51 3263.17 1481.59 3263.17 1486.7L3263.17 1493.58 3273.48 1493.58C3292.55 1493.86 3307.78 1509.54 3307.5 1528.61 3307.22 1547.41 3291.95 1562.54 3273.14 1562.63L3080.25 1562.63 3074.13 1562.36C3049.49 1561.3 3030.37 1540.46 3031.43 1515.82 3031.82 1506.77 3034.95 1498.06 3040.4 1490.84Z" stroke="#000000" stroke-width="3.4375"/></g></svg>