<svg width="200" height="200" xmlns="http://www.w3.org/2000/svg" xmlns:xlink="http://www.w3.org/1999/xlink" overflow="hidden"><defs><clipPath id="clip0"><rect x="540" y="260" width="200" height="200"/></clipPath></defs><g clip-path="url(#clip0)" transform="translate(-540 -260)"><path d="M640 280.833C596.277 280.833 560.833 316.277 560.833 360 560.833 403.723 596.277 439.167 640 439.167 683.723 439.167 719.167 403.723 719.167 360 719.186 316.297 683.773 280.852 640.07 280.833 640.047 280.833 640.023 280.833 640 280.833ZM640 430.833C600.928 430.718 569.282 399.072 569.167 360L569.167 357.083 572.084 353.333C572.889 352.305 574.112 351.693 575.417 351.666L582.5 351.666C583.323 351.657 584.067 352.153 584.375 352.916L591.875 367.916C592.031 368.229 592.243 368.512 592.5 368.749L595 370.416C595.983 371.075 597.314 370.812 597.973 369.829 598.188 369.508 598.313 369.135 598.333 368.749L598.333 361.874C598.343 360.774 598.793 359.723 599.583 358.957L605 353.54C605.828 352.728 607.158 352.742 607.97 353.57 608.025 353.627 608.077 353.686 608.125 353.748L614.375 361.665C614.807 362.141 615.402 362.439 616.042 362.498L617.5 362.498C618.6 362.508 619.651 362.958 620.417 363.748L622.084 365.415C622.85 366.205 623.901 366.655 625.001 366.665L625.418 366.665C626.503 366.73 627.436 365.904 627.501 364.819 627.506 364.74 627.506 364.661 627.501 364.582L627.501 359.582C627.51 358.759 627.014 358.016 626.251 357.707L624.376 356.874C623.673 356.496 623.204 355.793 623.126 354.999L623.126 351.666C623.061 350.581 623.887 349.648 624.972 349.583 625.051 349.578 625.13 349.578 625.209 349.583L630.417 349.583C631.057 349.523 631.652 349.226 632.084 348.75L635.001 344.375C635.426 343.687 635.643 342.891 635.626 342.083L635.626 337.708C635.658 337.348 635.586 336.986 635.418 336.666L633.96 330.416C633.712 329.501 634.149 328.539 635.002 328.124L636.044 327.707C636.981 327.25 638.11 327.51 638.752 328.332 638.752 328.332 640.627 332.29 641.877 333.124 642.294 333.332 643.544 333.541 643.96 333.124 645.21 331.874 644.793 327.707 644.377 324.999 644.2 323.479 644.833 321.977 646.044 321.041L651.461 316.874C652.011 316.502 652.327 315.87 652.294 315.207L652.294 314.165C652.229 313.08 653.055 312.147 654.14 312.082 654.219 312.077 654.298 312.077 654.377 312.082 655.462 312.147 656.395 311.321 656.46 310.236 656.465 310.157 656.465 310.078 656.46 309.999L656.46 309.582C656.503 308.569 655.791 307.679 654.793 307.499L651.043 306.666C649.875 306.351 649.183 305.15 649.498 303.982 649.56 303.751 649.66 303.532 649.793 303.333L652.293 300C653.469 298.422 655.324 297.494 657.293 297.5L663.751 297.5C665.387 297.486 666.859 296.504 667.501 295 703.491 310.097 720.429 351.511 705.332 387.501 694.298 413.808 668.528 430.9 640 430.833Z" stroke="#000000" stroke-width="1.333"/><path d="M675.625 402.5C675.428 401.972 675.146 401.48 674.792 401.042L666.664 388.75C666.074 387.798 664.825 387.505 663.873 388.094 663.285 388.459 662.923 389.099 662.914 389.792L662.914 391.25C662.979 392.335 662.153 393.268 661.068 393.333 660.989 393.338 660.91 393.338 660.831 393.333L659.998 393.333C659.175 393.342 658.431 392.846 658.123 392.083L656.456 388.541C655.87 387.505 654.556 387.141 653.521 387.726 653.18 387.919 652.899 388.201 652.706 388.541L651.039 390.416C650.645 390.794 650.127 391.016 649.581 391.041L648.123 391.041C647.023 391.051 645.972 391.501 645.206 392.291L636.873 398.958C635.193 400.342 634.833 402.772 636.04 404.583L641.457 413.541C642.646 415.507 645.204 416.137 647.171 414.948 647.44 414.785 647.689 414.593 647.915 414.374L651.873 410.416C653.41 408.897 655.853 408.806 657.498 410.208L664.373 415.833C664.753 416.064 665.18 416.207 665.623 416.25L671.248 416.25C672.333 416.315 673.266 415.489 673.331 414.404 673.336 414.325 673.336 414.246 673.331 414.167L673.331 411.25C673.322 410.427 673.818 409.683 674.581 409.375L676.039 408.75C676.979 408.31 677.43 407.227 677.081 406.25Z" stroke="#000000" stroke-width="1.333"/><path d="M652.5 374.583 657.708 381.458C658.275 382.251 659.334 382.516 660.208 382.083L662.916 380.833 666.458 382.083C667.587 382.408 668.765 381.756 669.09 380.627 669.129 380.49 669.155 380.35 669.166 380.208L669.166 380.208C669.17 379.444 668.775 378.733 668.124 378.333L659.166 372.916C658.958 372.499 658.541 372.499 658.124 372.499L652.5 372.499Z" stroke="#000000" stroke-width="1.333"/><path d="M636.459 376.25 637.709 371.667C637.931 370.971 637.678 370.211 637.082 369.787 636.337 369.097 635.215 369.01 634.374 369.579L630.207 372.704C629.297 373.396 629.12 374.694 629.811 375.605 630.024 375.884 630.303 376.104 630.624 376.246L633.541 377.704C634.71 378.127 636.001 377.523 636.424 376.354 636.437 376.32 636.448 376.285 636.459 376.25Z" stroke="#000000" stroke-width="1.333"/><path d="M616.459 371.462C615.616 370.902 614.499 370.987 613.751 371.67L612.918 372.503 625.21 382.711C625.418 382.919 625.627 382.919 625.835 383.128L630.418 384.586C631.139 384.799 631.918 384.643 632.501 384.169L633.751 382.919C625 380.416 616.459 371.462 616.459 371.462Z" stroke="#000000" stroke-width="1.333"/><path d="M646.25 339.167C651.875 335.417 658.333 331.042 656.667 324.584 656.459 324.167 654.792 324.167 654.584 324.584 653.751 328.334 652.917 331.459 644.167 337.084 643.75 337.5 645.416 339.584 646.25 339.167Z" stroke="#000000" stroke-width="1.333"/></g></svg>