<svg width="96" height="96" xmlns="http://www.w3.org/2000/svg" xmlns:xlink="http://www.w3.org/1999/xlink" overflow="hidden"><defs><clipPath id="clip0"><rect x="79" y="209" width="96" height="96"/></clipPath></defs><g clip-path="url(#clip0)" transform="translate(-79 -209)"><path d="M126.933 223C119.994 222.992 113.506 226.442 109.633 232.2 105.739 237.945 104.917 245.237 107.433 251.705L116.933 272.711 125.133 289.911C125.644 290.905 126.864 291.297 127.859 290.785 128.234 290.592 128.54 290.287 128.733 289.911L136.933 272.711 146.433 251.705C148.948 245.238 148.126 237.949 144.233 232.205 140.361 226.445 133.873 222.993 126.933 223ZM144.587 250.938 135.128 271.853 126.946 289.019 126.919 289.019 118.754 271.89 109.278 250.938C107.02 245.09 107.772 238.506 111.292 233.318 117.116 224.68 128.84 222.399 137.479 228.223 139.493 229.581 141.227 231.316 142.583 233.332 146.096 238.518 146.844 245.096 144.587 250.938Z" stroke="#000000" stroke-width="3"/><path d="M126.933 235C121.962 235 117.933 239.029 117.933 244 117.933 248.971 121.962 253 126.933 253 131.904 253 135.933 248.971 135.933 244 135.953 239.049 131.956 235.02 127.005 235 126.981 235 126.957 235 126.933 235ZM126.933 251.005C123.067 251.005 119.933 247.871 119.933 244.005 119.933 240.139 123.067 237.005 126.933 237.005 130.799 237.005 133.933 240.139 133.933 244.005 133.975 247.83 130.908 250.966 127.083 251.008 127.033 251.008 126.983 251.008 126.933 251.008Z" stroke="#000000" stroke-width="3"/></g></svg>