<svg width="96" height="96" xmlns="http://www.w3.org/2000/svg" xmlns:xlink="http://www.w3.org/1999/xlink" overflow="hidden"><defs><clipPath id="clip0"><rect x="355" y="36" width="96" height="96"/></clipPath></defs><g clip-path="url(#clip0)" transform="translate(-355 -36)"><path d="M436.891 111.447 432.121 64.716C431.301 57.1907 425.524 51.1571 418.041 50.011L417.892 50 388.11 50 387.958 50.012C380.481 51.1686 374.709 57.1982 373.881 64.719L369.028 111.352C368.933 111.835 369.04 112.336 369.323 112.738 369.669 113.218 370.197 113.535 370.784 113.614L380.323 114.574C380.438 114.597 380.554 114.608 380.671 114.608 381.042 114.606 381.404 114.492 381.708 114.279 382.18 113.941 382.496 113.426 382.581 112.852L384.491 98.815C384.491 98.803 384.51 98.805 384.51 98.815L384.51 117C384.51 117.552 384.958 118 385.51 118L420.492 118C421.044 118 421.492 117.552 421.492 117L421.492 99.183C421.492 99.171 421.51 99.17 421.511 99.183L423.334 112.916C423.514 113.903 424.382 114.614 425.385 114.595 425.418 114.595 425.452 114.595 425.485 114.59L435.215 113.602C436.205 113.425 436.919 112.554 436.9 111.549 436.9 111.515 436.894 111.481 436.891 111.447ZM390.444 52 391.185 52 400.864 83.459C400.865 83.4644 400.862 83.4698 400.857 83.4711 400.853 83.4721 400.848 83.4705 400.846 83.467L386.156 59.967ZM393.278 52 412.722 52 403.01 83.568C403.008 83.5735 403.001 83.576 402.995 83.5734 402.993 83.5723 402.991 83.5704 402.99 83.568ZM414.815 52 415.556 52 419.844 59.963 405.154 83.463C405.151 83.4676 405.145 83.4688 405.14 83.4657 405.137 83.4634 405.135 83.4591 405.136 83.455ZM386.51 116 386.51 80.915C386.51 80.3627 386.062 79.915 385.51 79.915 384.958 79.915 384.51 80.3627 384.51 80.915L384.51 83.833 380.575 112.594 371.009 111.6 375.869 64.927C376.597 58.3427 381.63 53.0538 388.17 52L383.844 60.033 401.821 88.8 395.152 99.47 395 99.713 395 116ZM425.338 112.593C425.317 112.593 425.309 112.593 425.306 112.585L421.492 83.838 421.492 80.915C421.492 80.3627 421.044 79.915 420.492 79.915 419.94 79.915 419.492 80.3627 419.492 80.915L419.492 116 397 116 397 100.287 422.156 60.037 417.83 52C424.405 52.9841 429.471 58.307 430.13 64.922L434.896 111.622Z" stroke="#000000" stroke-width="3"/><path d="M402.028 104.345C400.953 104.346 400.081 103.474 400.08 102.399 400.079 101.324 400.951 100.452 402.026 100.451 403.101 100.451 403.973 101.322 403.974 102.397 403.974 102.398 403.974 102.399 403.974 102.4 403.971 103.474 403.102 104.343 402.028 104.347Z" stroke="#000000" stroke-width="3"/><path d="M402.028 111.159C400.953 111.16 400.081 110.288 400.08 109.213 400.079 108.138 400.951 107.266 402.026 107.265 403.101 107.265 403.973 108.136 403.974 109.211 403.974 109.211 403.974 109.212 403.974 109.212 403.971 110.285 403.102 111.155 402.028 111.159Z" stroke="#000000" stroke-width="3"/></g></svg>