<svg width="106" height="74" xmlns="http://www.w3.org/2000/svg" xmlns:xlink="http://www.w3.org/1999/xlink" overflow="hidden"><defs><clipPath id="clip0"><rect x="90" y="286" width="106" height="74"/></clipPath></defs><g clip-path="url(#clip0)" transform="translate(-90 -286)"><path d="M149.423 353.456C145.941 357.003 140.243 357.056 136.696 353.575 136.656 353.535 136.616 353.496 136.577 353.456L105.021 321.3C101.542 317.75 101.599 312.052 105.148 308.573 106.83 306.925 109.09 306.001 111.444 306L174.556 306C179.527 306.002 183.554 310.034 183.552 315.004 183.551 317.359 182.627 319.619 180.979 321.3Z"/><path d="M149.423 333.456C145.941 337.003 140.243 337.056 136.696 333.575 136.656 333.535 136.616 333.496 136.577 333.456L105.021 301.3C101.542 297.75 101.599 292.052 105.148 288.573 106.83 286.925 109.09 286.001 111.444 286L174.556 286C179.527 286.002 183.554 290.034 183.552 295.004 183.551 297.359 182.627 299.619 180.979 301.3Z" fill="#E4E4E4"/></g></svg>