<svg width="330" height="330" xmlns="http://www.w3.org/2000/svg" xmlns:xlink="http://www.w3.org/1999/xlink" overflow="hidden"><defs><clipPath id="clip0"><rect x="3490" y="1010" width="330" height="330"/></clipPath></defs><g clip-path="url(#clip0)" transform="translate(-3490 -1010)"><path d="M3593.5 1106C3593.5 1085.29 3612.53 1068.5 3636 1068.5 3659.47 1068.5 3678.5 1085.29 3678.5 1106 3678.5 1126.71 3659.47 1143.5 3636 1143.5 3612.53 1143.5 3593.5 1126.71 3593.5 1106Z" stroke="#767171" stroke-width="4.58333" stroke-miterlimit="8" fill="#767171" fill-rule="evenodd"/><path d="M3546.5 1151C3546.5 1130.29 3565.53 1113.5 3589 1113.5 3612.47 1113.5 3631.5 1130.29 3631.5 1151 3631.5 1171.71 3612.47 1188.5 3589 1188.5 3565.53 1188.5 3546.5 1171.71 3546.5 1151Z" stroke="#767171" stroke-width="4.58333" stroke-miterlimit="8" fill="#767171" fill-rule="evenodd"/><path d="M3645.5 1131C3645.5 1110.29 3664.3 1093.5 3687.5 1093.5 3710.7 1093.5 3729.5 1110.29 3729.5 1131 3729.5 1151.71 3710.7 1168.5 3687.5 1168.5 3664.3 1168.5 3645.5 1151.71 3645.5 1131Z" stroke="#767171" stroke-width="4.58333" stroke-miterlimit="8" fill="#767171" fill-rule="evenodd"/><path d="M3687.5 1159.5C3687.5 1143.48 3704.96 1130.5 3726.5 1130.5 3748.04 1130.5 3765.5 1143.48 3765.5 1159.5 3765.5 1175.52 3748.04 1188.5 3726.5 1188.5 3704.96 1188.5 3687.5 1175.52 3687.5 1159.5Z" stroke="#767171" stroke-width="4.58333" stroke-miterlimit="8" fill="#767171" fill-rule="evenodd"/><rect x="3587.5" y="1132.5" width="119" height="55.9996" stroke="#767171" stroke-width="4.58333" stroke-miterlimit="8" fill="#767171"/><path d="M3587.5 1235C3587.5 1225.89 3591.98 1218.5 3597.5 1218.5 3603.02 1218.5 3607.5 1225.89 3607.5 1235 3607.5 1244.11 3603.02 1251.5 3597.5 1251.5 3591.98 1251.5 3587.5 1244.11 3587.5 1235Z" stroke="#00B0F0" stroke-width="4.58333" stroke-miterlimit="8" fill="#00B0F0" fill-rule="evenodd"/><path d="M3638.5 1249C3638.5 1234.36 3646.11 1222.5 3655.5 1222.5 3664.89 1222.5 3672.5 1234.36 3672.5 1249 3672.5 1263.64 3664.89 1275.5 3655.5 1275.5 3646.11 1275.5 3638.5 1263.64 3638.5 1249Z" stroke="#00B0F0" stroke-width="4.58333" stroke-miterlimit="8" fill="#00B0F0" fill-rule="evenodd"/><path d="M3703.5 1235C3703.5 1225.89 3707.98 1218.5 3713.5 1218.5 3719.02 1218.5 3723.5 1225.89 3723.5 1235 3723.5 1244.11 3719.02 1251.5 3713.5 1251.5 3707.98 1251.5 3703.5 1244.11 3703.5 1235Z" stroke="#00B0F0" stroke-width="4.58333" stroke-miterlimit="8" fill="#00B0F0" fill-rule="evenodd"/><path d="M3655.34 1218.07C3663.73 1231.37 3672.55 1247.6 3672.55 1253.72 3672.55 1263.21 3664.85 1270.9 3655.36 1270.9 3645.87 1270.9 3638.17 1263.21 3638.17 1253.72 3638.17 1247.43 3646.96 1231.26 3655.34 1218.07ZM3655.36 1205.59C3655.36 1205.59 3631.3 1240.31 3631.3 1253.72 3631.3 1267 3642.07 1277.78 3655.36 1277.78 3668.65 1277.78 3679.42 1267 3679.42 1253.72 3679.42 1240.65 3655.36 1205.59 3655.36 1205.59Z" stroke="#000000" stroke-width="3.4375"/><path d="M3713.77 1218.21C3719.4 1227.43 3724.11 1236.74 3724.11 1239.97 3724.11 1245.66 3719.49 1250.28 3713.8 1250.28 3708.1 1250.28 3703.49 1245.66 3703.49 1239.97 3703.49 1236.61 3708.17 1227.33 3713.77 1218.21ZM3713.8 1205.59C3713.8 1205.59 3696.61 1230.34 3696.61 1239.97 3696.61 1249.46 3704.31 1257.15 3713.8 1257.15 3723.29 1257.15 3730.99 1249.46 3730.99 1239.97 3730.99 1230.68 3713.8 1205.59 3713.8 1205.59Z" stroke="#000000" stroke-width="3.4375"/><path d="M3596.9 1218.21C3602.53 1227.43 3607.24 1236.74 3607.24 1239.97 3607.24 1245.66 3602.62 1250.28 3596.92 1250.28 3591.23 1250.28 3586.61 1245.66 3586.61 1239.97 3586.61 1236.61 3591.29 1227.33 3596.9 1218.21ZM3596.92 1205.59C3596.92 1205.59 3579.74 1230.34 3579.74 1239.97 3579.74 1249.46 3587.43 1257.15 3596.92 1257.15 3606.42 1257.15 3614.11 1249.46 3614.11 1239.97 3614.11 1230.68 3596.92 1205.59 3596.92 1205.59Z" stroke="#000000" stroke-width="3.4375"/><path d="M3636.34 1068.34 3636.34 1068.34C3652.12 1068.32 3666.62 1077.01 3674.05 1090.93L3676.76 1096 3682.23 1094.23C3685.75 1093.08 3689.44 1092.49 3693.14 1092.49 3700.34 1092.46 3707.36 1094.76 3713.14 1099.05L3713.24 1099.13 3713.34 1099.19C3722.35 1105.52 3727.66 1115.87 3727.55 1126.88L3727.55 1135.43 3735.63 1133.99C3737.1 1133.72 3738.59 1133.59 3740.09 1133.59 3746.08 1133.6 3751.87 1135.75 3756.42 1139.66 3762.11 1144.55 3765.38 1151.68 3765.36 1159.19 3765.47 1173.08 3754.62 1184.6 3740.75 1185.31L3576.19 1185.31C3557.24 1183.83 3543.08 1167.27 3544.55 1148.32 3545.95 1130.42 3560.88 1116.6 3578.84 1116.58 3580.92 1116.58 3582.99 1116.77 3585.04 1117.14L3593.02 1118.59 3593.14 1110.48C3593.8 1087.07 3612.93 1068.42 3636.34 1068.34M3636.34 1061.47C3609.17 1061.54 3586.98 1083.21 3586.27 1110.38 3583.81 1109.93 3581.33 1109.7 3578.84 1109.7 3556.04 1109.58 3537.45 1127.96 3537.32 1150.76 3537.2 1172.62 3554.14 1190.78 3575.95 1192.19L3740.95 1192.19C3758.53 1191.33 3772.31 1176.78 3772.24 1159.19 3772.27 1149.67 3768.12 1140.62 3760.89 1134.44 3753.6 1128.17 3743.88 1125.52 3734.42 1127.22L3734.42 1126.88C3734.23 1104.16 3715.86 1085.79 3693.14 1085.61 3688.72 1085.62 3684.32 1086.32 3680.11 1087.69 3671.46 1071.56 3654.64 1061.49 3636.34 1061.47Z" stroke="#000000" stroke-width="3.4375"/></g></svg>