<svg width="96" height="96" xmlns="http://www.w3.org/2000/svg" xmlns:xlink="http://www.w3.org/1999/xlink" overflow="hidden"><defs><clipPath id="clip0"><rect x="759" y="289" width="96" height="96"/></clipPath></defs><g clip-path="url(#clip0)" transform="translate(-759 -289)"><path d="M848.2 349.2 835.5 336.5C833.9 334.9 831.4 334.9 829.8 336.5L822 344.3 818.5 340.8 829.1 330.2C830.7 328.6 830.7 326.1 829.1 324.5 829.1 324.5 829.1 324.5 829.1 324.5L827.4 322.8 831.6 321.4 822.4 312 821 316.2 819.3 314.5C817.7 312.9 815.2 312.9 813.6 314.5 813.6 314.5 813.6 314.5 813.6 314.5L803 325.2 799.5 321.7 807.3 313.9C808.9 312.3 808.9 309.8 807.3 308.2L794.5 295.5C792.9 293.9 790.4 293.9 788.8 295.5L771.2 313.1C769.6 314.7 769.6 317.2 771.2 318.8 771.2 318.8 771.2 318.8 771.2 318.8L783.9 331.5C785.5 333.1 788 333.1 789.6 331.5L798 323 801.5 326.5 791 337.2C789.4 338.8 789.4 341.3 791 342.9 791 342.9 791 342.9 791 342.9L793.8 345.7 790.9 348.6C788.1 346.2 784.8 344.6 781.2 343.9 777.6 343.3 774.4 343.9 772.6 345.7L771.9 346.4 775.8 350.4 775.8 364.4C775.7 364.4 775.5 364.4 775.4 364.4 773.2 364.4 771.4 366.2 771.4 368.4 771.4 370.6 773.2 372.4 775.4 372.4 777.6 372.4 779.4 370.6 779.4 368.4 779.4 368.3 779.4 368.1 779.4 368L793.4 368 797.4 371.9 798.1 371.2C801 368.3 801.3 360.5 795.2 352.9L798.1 350 800.9 352.8C802.5 354.4 805 354.4 806.6 352.8L817.2 342.2 820.7 345.7 812.2 354.2C810.6 355.8 810.6 358.3 812.2 359.9L824.9 372.6C826.5 374.2 829 374.2 830.6 372.6L848.3 354.9C849.8 353.3 849.8 350.8 848.2 349.2ZM823.2 315.7 828 320.5 825.9 321.2 822.5 317.8 823.2 315.7ZM805.8 312.4 798 320.2 793.8 316 803 306.8 805.8 309.6C806.6 310.4 806.6 311.7 805.8 312.4 805.8 312.4 805.8 312.4 805.8 312.4ZM788.1 310.3 797.3 301.1 801.5 305.3 792.3 314.5 788.1 310.3ZM791 316 781.1 325.9 776.9 321.7 786.8 311.8 791 316ZM790.3 296.9C791.1 296.1 792.3 296.1 793.1 296.9L795.9 299.7 786.7 308.9 782.5 304.7 790.3 296.9ZM772 316C772 315.5 772.2 315 772.6 314.6L781.1 306.1 785.3 310.3 775.4 320.2 772.6 317.4C772.2 317 772 316.5 772 316ZM788.1 330.1C787.3 330.9 786.1 330.9 785.3 330.1L782.5 327.3 792.4 317.4 796.6 321.6 788.1 330.1ZM783.9 358.4 777.8 364.5 777.8 352.3 783.9 358.4ZM776.8 369.7C776 370.5 774.8 370.5 774 369.7 773.2 368.9 773.2 367.7 774 366.9 774.8 366.1 776 366.1 776.8 366.9 777.6 367.7 777.6 368.9 776.8 369.7 776.8 369.7 776.8 369.7 776.8 369.7ZM779.2 365.9 785.3 359.8 791.4 365.9 779.2 365.9ZM797.2 368.9 774.8 346.5C776.7 345.6 778.8 345.4 780.8 345.9 783.4 346.4 787.4 347.8 791.7 352.1 798.5 358.8 798.9 365.9 797.2 368.9ZM793.8 351.4C793.6 351.2 793.4 350.9 793.1 350.7 792.8 350.5 792.6 350.2 792.4 350L795.2 347.2 796.6 348.6 793.8 351.4ZM805.1 351.3C804.3 352.1 803.1 352.1 802.3 351.3L799.5 348.5 799.5 348.5 798 347.1 798 347.1 796.6 345.7 795.2 344.3 792.4 341.5C791.6 340.7 791.6 339.5 792.4 338.7 792.4 338.7 792.4 338.7 792.4 338.7L815 316C815.8 315.2 817 315.2 817.8 316 817.8 316 817.8 316 817.8 316L820.2 318.4 820.2 318.4 825.3 323.5 827.7 325.9C828.5 326.7 828.5 327.9 827.7 328.7 827.7 328.7 827.7 328.7 827.7 328.7L805.1 351.3ZM829.2 351.3 838.4 342.1 842.6 346.3 833.4 355.5 829.2 351.3ZM832 357 822.1 366.9 817.9 362.7 827.8 352.8 832 357ZM831.3 337.9C832.1 337.1 833.3 337.1 834.1 337.9 834.1 337.9 834.1 337.9 834.1 337.9L836.9 340.7 827.7 349.9 823.5 345.7 831.3 337.9ZM813.6 355.6 822.1 347.1 826.3 351.3 816.4 361.2 813.6 358.4C812.8 357.6 812.8 356.4 813.6 355.6ZM829.2 371.1C828.4 371.9 827.2 371.9 826.4 371.1L823.6 368.3 833.5 358.4 837.7 362.6 829.2 371.1ZM839.1 361.2 834.8 357 844 347.8 846.8 350.6C847.6 351.4 847.6 352.6 846.8 353.4L839.1 361.2Z" stroke="#000000" stroke-width="3"/></g></svg>