<svg width="96" height="96" xmlns="http://www.w3.org/2000/svg" xmlns:xlink="http://www.w3.org/1999/xlink" overflow="hidden"><defs><clipPath id="clip0"><rect x="607" y="142" width="96" height="96"/></clipPath></defs><g clip-path="url(#clip0)" transform="translate(-607 -142)"><path d="M655 152C634.013 152 617 169.013 617 190 617 210.987 634.013 228 655 228 675.987 228 693 210.987 693 190 693 169.013 675.987 152 655 152ZM655 226C635.118 226 619 209.882 619 190 619 170.118 635.118 154 655 154 674.882 154 691 170.118 691 190 690.977 209.873 674.873 225.977 655 226Z" stroke="#000000" stroke-width="3"/><path d="M645 187C645 183.686 642.314 181 639 181 635.686 181 633 183.686 633 187 633 190.314 635.686 193 639 193 642.314 193 645 190.314 645 187ZM639 191C636.791 191 635 189.209 635 187 635 184.791 636.791 183 639 183 641.209 183 643 184.791 643 187 642.997 189.208 641.208 190.997 639 191Z" stroke="#000000" stroke-width="3"/><path d="M671 181C667.686 181 665 183.686 665 187 665 190.314 667.686 193 671 193 674.314 193 677 190.314 677 187 677 183.686 674.314 181 671 181ZM671 191C668.791 191 667 189.209 667 187 667 184.791 668.791 183 671 183 673.209 183 675 184.791 675 187 675 189.209 673.209 191 671 191Z" stroke="#000000" stroke-width="3"/><path d="M667 206 643 206C642.448 206 642 206.448 642 207 642 207.552 642.448 208 643 208L667 208C667.552 208 668 207.552 668 207 668 206.448 667.552 206 667 206Z" stroke="#000000" stroke-width="3"/><path d="M646.5 176C646.5 175.448 646.052 175 645.5 175L632.5 175C631.948 175 631.5 175.448 631.5 176 631.5 176.552 631.948 177 632.5 177L645.5 177C646.052 177 646.5 176.552 646.5 176Z" stroke="#000000" stroke-width="3"/><path d="M677.5 175 664.5 175C663.948 175 663.5 175.448 663.5 176 663.5 176.552 663.948 177 664.5 177L677.5 177C678.052 177 678.5 176.552 678.5 176 678.5 175.448 678.052 175 677.5 175Z" stroke="#000000" stroke-width="3"/></g></svg>