<svg width="96" height="96" xmlns="http://www.w3.org/2000/svg" xmlns:xlink="http://www.w3.org/1999/xlink" overflow="hidden"><defs><clipPath id="clip0"><rect x="592" y="312" width="96" height="96"/></clipPath></defs><g clip-path="url(#clip0)" transform="translate(-592 -312)"><path d="M640 346C632.268 346 626 352.268 626 360 626 367.732 632.268 374 640 374 647.732 374 654 367.732 654 360 654 352.268 647.732 346 640 346ZM640 372C633.373 372 628 366.627 628 360 628 353.373 633.373 348 640 348 646.627 348 652 353.373 652 360 652 366.627 646.627 372 640 372Z" stroke="#000000" stroke-width="3"/><path d="M639 331 641 331 641 342 639 342Z" stroke="#000000" stroke-width="3"/><path d="M639 378 641 378 641 389 639 389Z" stroke="#000000" stroke-width="3"/><path d="M658 359 669 359 669 361 658 361Z" stroke="#000000" stroke-width="3"/><path d="M611 359 622 359 622 361 611 361Z" stroke="#000000" stroke-width="3"/><path d="M652.021 346.565 659.799 338.787 661.213 340.201 653.435 347.979Z" stroke="#000000" stroke-width="3"/><path d="M618.787 379.8 626.565 372.022 627.979 373.436 620.201 381.214Z" stroke="#000000" stroke-width="3"/><path d="M652.021 373.435 653.435 372.021 661.213 379.799 659.799 381.214Z" stroke="#000000" stroke-width="3"/><path d="M618.787 340.2 620.201 338.786 627.979 346.565 626.565 347.979Z" stroke="#000000" stroke-width="3"/></g></svg>