<svg width="330" height="330" xmlns="http://www.w3.org/2000/svg" xmlns:xlink="http://www.w3.org/1999/xlink" overflow="hidden"><defs><clipPath id="clip0"><rect x="2035" y="1073" width="330" height="330"/></clipPath></defs><g clip-path="url(#clip0)" transform="translate(-2035 -1073)"><path d="M2155.5 1238C2155.5 1212.87 2175.87 1192.5 2201 1192.5 2226.13 1192.5 2246.5 1212.87 2246.5 1238 2246.5 1263.13 2226.13 1283.5 2201 1283.5 2175.87 1283.5 2155.5 1263.13 2155.5 1238Z" stroke="#FFCC58" stroke-width="4.58333" stroke-miterlimit="8" fill="#FFCC58" fill-rule="evenodd"/><path d="M2200 1189.87C2173.42 1189.87 2151.88 1211.42 2151.88 1238 2151.88 1264.58 2173.42 1286.12 2200 1286.12 2226.58 1286.12 2248.12 1264.58 2248.12 1238 2248.1 1211.43 2226.57 1189.9 2200 1189.87ZM2200 1279.25C2177.22 1279.25 2158.75 1260.78 2158.75 1238 2158.75 1215.22 2177.22 1196.75 2200 1196.75 2222.78 1196.75 2241.25 1215.22 2241.25 1238 2241.23 1260.77 2222.77 1279.23 2200 1279.25Z" stroke="#000000" stroke-width="3.4375"/><path d="M2196.56 1138.31 2203.44 1138.31 2203.44 1176.12 2196.56 1176.12Z" stroke="#000000" stroke-width="3.4375"/><path d="M2196.56 1299.87 2203.44 1299.87 2203.44 1337.69 2196.56 1337.69Z" stroke="#000000" stroke-width="3.4375"/><path d="M2261.88 1234.56 2299.69 1234.56 2299.69 1241.44 2261.88 1241.44Z" stroke="#000000" stroke-width="3.4375"/><path d="M2100.31 1234.56 2138.12 1234.56 2138.12 1241.44 2100.31 1241.44Z" stroke="#000000" stroke-width="3.4375"/><path d="M2241.32 1191.82 2268.06 1165.08 2272.92 1169.94 2246.18 1196.68Z" stroke="#000000" stroke-width="3.4375"/><path d="M2127.08 1306.06 2153.82 1279.32 2158.68 1284.18 2131.94 1310.92Z" stroke="#000000" stroke-width="3.4375"/><path d="M2241.32 1284.18 2246.18 1279.32 2272.92 1306.06 2268.06 1310.92Z" stroke="#000000" stroke-width="3.4375"/><path d="M2127.08 1169.94 2131.94 1165.08 2158.68 1191.82 2153.82 1196.68Z" stroke="#000000" stroke-width="3.4375"/></g></svg>