<svg width="96" height="96" xmlns="http://www.w3.org/2000/svg" xmlns:xlink="http://www.w3.org/1999/xlink" overflow="hidden"><defs><clipPath id="clip0"><rect x="133" y="65" width="96" height="96"/></clipPath></defs><g clip-path="url(#clip0)" transform="translate(-133 -65)"><path d="M183 75 182 75 182 72C182 71.4477 181.552 71 181 71 180.448 71 180 71.4477 180 72L180 75 179 75C157.8 76 141 91.7 141 111 140.969 111.521 141.366 111.969 141.887 112 141.924 112.002 141.962 112.002 142 112 142.521 112.031 142.969 111.634 143 111.113 143.002 111.076 143.002 111.038 143 111 143 105 148.4 100.2 155 100.2 161.6 100.2 167 105 167 111 167 111.552 167.448 112 168 112 168.552 112 169 111.552 169 111 169.091 106.996 171.423 103.382 175.033 101.648 176.581 100.888 178.276 100.473 180 100.43L180 139.889C179.683 140.171 179.501 140.575 179.5 141L179.5 145.322C179.536 147.423 177.985 149.215 175.9 149.48 173.702 149.701 171.741 148.098 171.52 145.9 171.507 145.767 171.5 145.634 171.5 145.5 171.501 144.672 170.83 143.999 170.001 143.999 169.883 143.999 169.765 144.012 169.65 144.04 168.944 144.232 168.466 144.888 168.5 145.618 168.57 149.488 171.763 152.568 175.633 152.499 175.81 152.495 175.986 152.486 176.162 152.469 179.82 152.033 182.557 148.903 182.5 145.22L182.5 141C182.499 140.575 182.317 140.171 182 139.889L182 100.427C183.45 100.467 184.88 100.775 186.218 101.334 190.209 102.909 192.877 106.711 193 111L193 111 193 111C193 111.552 193.448 112 194 112 194.552 112 195 111.552 195 111 195 105 200.4 100.2 207 100.2 213.6 100.2 219 105 219 111 219 111.552 219.448 112 220 112 220.552 112 221 111.552 221 111 221 91.7 204.2 76 183 75ZM155 98.2C150.839 98.1585 146.861 99.9068 144.077 103 144.062 103.017 144.054 103.013 144.06 102.99 147.7 89.516 160.312 79.109 176.082 77.249 171.437 81.584 168.05 91.909 167.207 104.718 167.207 104.734 167.199 104.737 167.19 104.718 164.521 100.59 159.915 98.1273 155 98.2ZM187.017 99.5C185.226 98.7468 183.299 98.3723 181.357 98.4L180.615 98.4C178.364 98.3642 176.137 98.8675 174.121 99.868 172.202 100.844 170.545 102.265 169.288 104.012 169.277 104.027 169.27 104.024 169.271 104.005 170.402 89.424 174.971 77.94 180.424 77.085L181.576 77.085C187.033 77.94 191.6 89.423 192.729 104 192.729 104.019 192.722 104.022 192.711 104.007 191.252 102.021 189.285 100.464 187.017 99.5ZM207 98.2C202.084 98.1284 197.478 100.593 194.81 104.723 194.801 104.737 194.794 104.735 194.793 104.723 193.95 91.913 190.563 81.588 185.918 77.253 201.688 79.109 214.3 89.516 217.94 102.992 217.946 103.015 217.94 103.019 217.923 103.002 215.14 99.908 211.161 98.159 207 98.2Z" stroke="#000000" stroke-width="3"/></g></svg>