<svg width="96" height="96" xmlns="http://www.w3.org/2000/svg" xmlns:xlink="http://www.w3.org/1999/xlink" overflow="hidden"><defs><clipPath id="clip0"><rect x="916" y="512" width="96" height="96"/></clipPath></defs><g clip-path="url(#clip0)" transform="translate(-916 -512)"><path d="M939 573C939 586.807 950.193 598 964 598 977.807 598 989 586.807 989 573 989 557.1 964 522 964 522 964 522 939 557.2 939 573ZM987 573C987 585.703 976.703 596 964 596 951.297 596 941 585.703 941 573 941 560.306 958.506 533.59 964.002 525.516 969.501 533.572 987 560.22 987 573Z" stroke="#000000"/></g></svg>