<svg width="96" height="96" xmlns="http://www.w3.org/2000/svg" xmlns:xlink="http://www.w3.org/1999/xlink" overflow="hidden"><defs><clipPath id="clip0"><rect x="676" y="431" width="96" height="96"/></clipPath></defs><g clip-path="url(#clip0)" transform="translate(-676 -431)"><path d="M692 469C692 469.552 692.448 470 693 470L721 470C725.971 470 730 465.971 730 461 730 456.029 725.971 452 721 452 716.029 452 712 456.029 712 461L712 462C712 462.552 712.448 463 713 463 713.552 463 714 462.552 714 462L714 461C714 457.134 717.134 454 721 454 724.866 454 728 457.134 728 461 728 464.866 724.866 468 721 468L693 468C692.448 468 692 468.448 692 469Z" stroke="#000000" stroke-width="3"/><path d="M751 456C743.816 456.004 737.996 461.832 738 469.016 738.001 470.486 738.251 471.946 738.74 473.333 738.909 473.859 739.472 474.148 739.998 473.979 740.524 473.81 740.813 473.246 740.644 472.72 740.638 472.703 740.632 472.685 740.625 472.667 738.6 466.939 741.601 460.654 747.329 458.629 753.056 456.604 759.341 459.605 761.367 465.333 763.392 471.061 760.39 477.346 754.663 479.371 753.486 479.787 752.248 480 751 480L685 480C684.448 480 684 480.448 684 481 684 481.552 684.448 482 685 482L751 482C758.18 482 764 476.18 764 469 764 461.82 758.18 456 751 456Z" stroke="#000000" stroke-width="3"/><path d="M732 492 697 492C696.448 492 696 492.448 696 493 696 493.552 696.448 494 697 494L732 494C734.761 494.001 736.999 496.241 736.998 499.002 736.997 501.763 734.757 504.001 731.996 504 729.878 503.999 727.99 502.664 727.284 500.667 727.1 500.146 726.529 499.873 726.008 500.057 725.487 500.241 725.214 500.812 725.398 501.333 726.687 504.978 730.686 506.888 734.331 505.6 737.976 504.311 739.886 500.312 738.598 496.667 737.609 493.871 734.966 492.001 732 492Z" stroke="#000000" stroke-width="3"/></g></svg>